#!OML:ASF E:/inclinewalkrobotboard/Project1/Captureday1/Session1/subject1.ASF
:FULLY-SPECIFIED
:DEGREES
188
root 0 0 0 -0.9451728370186885 20.086763334206335 8.596584966749484
lowerback -4.283556828511257 -6.0510343645697375 -6.446051590982662
upperback -8.520701071159586 -7.503856305417164 6.929637671282057
thorax -6.097466594983012 -2.609079452094228 10.965713624445309
lowerneck -5.5642562507578734 -8.777767826884345 -7.576961678625203
upperneck 32.318448265462436 -11.390173434796308 2.021563261411845
head 12.167213421442426 -5.779753913798688 0.41435470623950243
rclavicle -3.986387409451109E-15 -2.621030095544712E-15
rhumerus -19.375673553858242 -26.832944674906745 -16.85125910811211
rradius 61.904884471869536
rwrist -11.856090704179643
rhand -26.619127750091877 32.30795477401084
rfingers 7.1250199999999655
rthumb -0.030130186396696956 1.5219910581950344
lclavicle -1.1322316315922928E-15 -3.692951366219696E-15
lhumerus 29.10051158737307 6.798233348571664 34.44931290114277
lradius 62.78893345560853
lwrist -11.436532732412076
lhand -12.434322440427705 7.3534922072459885
lfingers 7.1250199999999815
lthumb 13.479781880494022 35.47713494628407
rfemur 149.5195021222678 -166.80594399195795 -131.03477084919396
rtibia 28.606527148288194
rfoot -15.843706008317412 -50.8084273668515
rtoes 5.213459727640256
lfemur -83.36193616157267 24.186717875780495 -57.501309833765234
ltibia 68.21301141070566
lfoot 11.793604530291692 32.832953376296324
ltoes 0.8805110411860291
189
root 0 0 0 -1.261765149846763 21.09220975685373 8.668695567431525
lowerback -4.163067812177899 -6.0658890873797375 -6.4309730850908196
upperback -8.462741251511135 -7.513825675650601 6.968251459478955
thorax -6.096407913953378 -2.613402242351232 10.995273334310752
lowerneck -5.554766598258373 -8.851585865891233 -7.645158717822929
upperneck 32.26274302469144 -11.444705508225983 1.9159898948990122
head 12.143221344977423 -5.821089284907874 0.38075964245013083
rclavicle -3.942574374074505E-15 -2.5857715816552447E-15
rhumerus -19.108290029672958 -26.877059743509758 -16.58174232700773
rradius 62.20940780652717
rwrist -11.985910825069254
rhand -26.628364096486216 32.35006903817273
rfingers 7.1250199999999655
rthumb -0.04148345315680402 1.5686217798361177
lclavicle -1.0388947610179017E-15 -3.881118277533776E-15
lhumerus 27.91044442777342 6.235932470163597 36.14696046874792
lradius 62.91456128587956
lwrist -10.675506822133565
lhand -13.182613015251642 7.298606810437207
lfingers 7.125019999999978
lthumb 12.76391673497577 35.49664404495026
rfemur 145.36577431910027 -161.85073456961 -126.65538568919717
rtibia 28.46373086665794
rfoot -14.630697805796364 -50.66596916928382
rtoes 4.790857195572386
lfemur -82.71914524717829 24.10862114812669 -57.50493378286259
ltibia 68.02939891107744
lfoot 12.235350708897553 32.58848073561296
ltoes 0.41476972277560087
190
root 0 0 0 -1.325791986681896 21.302912658932147 8.667006863790897
lowerback -4.12786580811583 -6.067863854198601 -6.420264102568138
upperback -8.445469184428164 -7.514719612214257 6.975919198599714
thorax -6.095378274328672 -2.6149948584374982 10.996811099520956
lowerneck -5.5598353178129285 -8.867586493449936 -7.660512834881115
upperneck 32.249303310929875 -11.45708336202265 1.8937886042685985
head 12.139173369920819 -5.830124569165841 0.37380929779894145
rclavicle -3.910693068229164E-15 -2.562513217340264E-15
rhumerus -19.041425523962516 -26.89165192066131 -16.579067285059296
rradius 62.260226730523065
rwrist -12.04114435822963
rhand -26.622991988940836 32.35176214610202
rfingers 7.1250199999999655
rthumb -0.03693582506717874 1.5722761805954946
lclavicle -8.304747276329061E-16 -3.8889567800103575E-15
lhumerus 26.961785534877293 5.837296273870139 37.25661797530607
lradius 63.03998578611876
lwrist -10.10252093540155
lhand -13.516362107539354 7.296031507808927
lfingers 7.125019999999976
lthumb 12.443010745726312 35.51783386346989
rfemur 143.62213973916096 -159.83849219836418 -124.88028085103257
rtibia 28.475588419201337
rfoot -14.226973854128119 -50.57950580378328
rtoes 4.718612458359917
lfemur -82.46088979076701 24.073906708181653 -57.45357554195051
ltibia 68.07925106111065
lfoot 12.290051644718869 32.43520504712461
ltoes 0.24085436669555982
191
root 0 0 0 -1.3612455074631882 21.399516188242476 8.658040106831768
lowerback -4.101118454598375 -6.067908904681378 -6.40978908652338
upperback -8.432193935613531 -7.51414643391548 6.979112795467774
thorax -6.0948126526646895 -2.615956624456526 10.994044497133494
lowerneck -5.566694977714158 -8.874377751569574 -7.667482047694039
upperneck 32.238886365676976 -11.461789045519504 1.8834435077034815
head 12.136636675817549 -5.833862576750307 0.37061457849063517
rclavicle -3.88899585203094E-15 -2.5485920790900224E-15
rhumerus -19.022412755706817 -26.902612493911864 -16.59660109618646
rradius 62.280881789323885
rwrist -12.076031806098491
rhand -26.61963451862355 32.3540259297749
rfingers 7.1250199999999655
rthumb -0.03403181003500322 1.5757547001353664
lclavicle -6.587632358963729E-16 -3.89631232636665E-15
lhumerus 26.077620371375417 5.455213641669363 38.262131133911154
lradius 63.16465547321199
lwrist -9.55545373710048
lhand -13.757554693989091 7.308097644638416
lfingers 7.125019999999974
lthumb 12.21048948100314 35.54105361889907
rfemur 142.32426110707686 -158.37459035108685 -123.57986430409326
rtibia 28.485138174865405
rfoot -13.988799036341554 -50.47896418739687
rtoes 4.686695065091026
lfemur -82.30855505194162 24.05099148650787 -57.382628854825384
ltibia 68.1281779946422
lfoot 12.328551228941802 32.31352782906968
ltoes 0.16199850691283046
